<svg width="19" height="18" viewBox="0 0 19 18" fill="none" xmlns="http://www.w3.org/2000/svg">
<path fill-rule="evenodd" clip-rule="evenodd" d="M7.17224 11.9475C9.90362 11.9475 12.1138 9.73657 12.1138 7.01428C12.1138 4.29199 9.90362 2.08105 7.17224 2.08105C4.44085 2.08105 2.23071 4.29199 2.23071 7.01428C2.23071 9.73657 4.44085 11.9475 7.17224 11.9475ZM7.17224 13.9475C11.0059 13.9475 14.1138 10.8434 14.1138 7.01428C14.1138 3.18517 11.0059 0.0810547 7.17224 0.0810547C3.33854 0.0810547 0.230713 3.18517 0.230713 7.01428C0.230713 10.8434 3.33854 13.9475 7.17224 13.9475Z" fill="#A7AAC6"/>
<path fill-rule="evenodd" clip-rule="evenodd" d="M11.4228 11.2599C11.8131 10.8691 12.4463 10.8687 12.8371 11.259L17.7953 16.2113C18.186 16.6016 18.1864 17.2348 17.7961 17.6255C17.4058 18.0163 16.7727 18.0167 16.3819 17.6264L11.4237 12.6741C11.0329 12.2838 11.0326 11.6506 11.4228 11.2599Z" fill="#A7AAC6"/>
</svg>
