<svg width="37" height="38" viewBox="0 0 37 38" fill="none" xmlns="http://www.w3.org/2000/svg">
<path fill-rule="evenodd" clip-rule="evenodd" d="M19.1277 4C10.7863 4 4 10.8142 4 19.25C4 20.3546 3.10457 21.25 2 21.25C0.89543 21.25 0 20.3546 0 19.25C0 8.63196 8.55035 0 19.1277 0C21.0728 0 22.9535 0.292847 24.7268 0.83843C25.7825 1.16325 26.3751 2.2824 26.0503 3.33813C25.7254 4.39386 24.6063 4.98639 23.5506 4.66157C22.1539 4.23186 20.6694 4 19.1277 4Z" fill="#5F82FF"/>
<path fill-rule="evenodd" clip-rule="evenodd" d="M15.4416 22.9623C17.4773 25.0126 20.7779 25.0126 22.8136 22.9623C24.8493 20.9121 33.2765 6.50002 32.5319 5.75002C31.7872 5.00002 17.4773 13.4874 15.4416 15.5377C13.4059 17.5879 13.4059 20.9121 15.4416 22.9623ZM19.1276 20.75C19.9501 20.75 20.617 20.0785 20.617 19.25C20.617 18.4216 19.9501 17.75 19.1276 17.75C18.305 17.75 17.6382 18.4216 17.6382 19.25C17.6382 20.0785 18.305 20.75 19.1276 20.75Z" fill="#5F82FF"/>
<path d="M5.72335 28.25C5.72335 29.0784 5.05654 29.75 4.23399 29.75C3.41144 29.75 2.74463 29.0784 2.74463 28.25C2.74463 27.4216 3.41144 26.75 4.23399 26.75C5.05654 26.75 5.72335 27.4216 5.72335 28.25Z" fill="#5F82FF"/>
<path d="M11.6809 34.25C11.6809 35.0784 11.0141 35.75 10.1915 35.75C9.36896 35.75 8.70215 35.0784 8.70215 34.25C8.70215 33.4216 9.36896 32.75 10.1915 32.75C11.0141 32.75 11.6809 33.4216 11.6809 34.25Z" fill="#5F82FF"/>
<path d="M20.6169 36.5C20.6169 37.3284 19.9501 38 19.1275 38C18.305 38 17.6382 37.3284 17.6382 36.5C17.6382 35.6716 18.305 35 19.1275 35C19.9501 35 20.6169 35.6716 20.6169 36.5Z" fill="#5F82FF"/>
<path d="M29.5532 34.25C29.5532 35.0784 28.8864 35.75 28.0638 35.75C27.2413 35.75 26.5745 35.0784 26.5745 34.25C26.5745 33.4216 27.2413 32.75 28.0638 32.75C28.8864 32.75 29.5532 33.4216 29.5532 34.25Z" fill="#5F82FF"/>
<path d="M34.7661 28.25C34.7661 29.0784 34.0993 29.75 33.2767 29.75C32.4542 29.75 31.7874 29.0784 31.7874 28.25C31.7874 27.4216 32.4542 26.75 33.2767 26.75C34.0993 26.75 34.7661 27.4216 34.7661 28.25Z" fill="#5F82FF"/>
<path d="M37 19.25C37 20.0784 36.3332 20.75 35.5106 20.75C34.6881 20.75 34.0212 20.0784 34.0212 19.25C34.0212 18.4216 34.6881 17.75 35.5106 17.75C36.3332 17.75 37 18.4216 37 19.25Z" fill="#5F82FF"/>
</svg>
